<?xml version="1.0" standalone="no"?>
<!DOCTYPE svg PUBLIC "-//W3C//DTD SVG 20010904//EN"
 "http://www.w3.org/TR/2001/REC-SVG-20010904/DTD/svg10.dtd">
<svg version="1.0" xmlns="http://www.w3.org/2000/svg"
 width="8342.000000pt" height="8342.000000pt" viewBox="0 0 8342.000000 8342.000000"
 preserveAspectRatio="xMidYMid meet">

<g transform="translate(0.000000,8342.000000) scale(0.100000,-0.100000)"
fill="#000000" stroke="none">
<path d="M25770 72149 c-1934 -53 -3845 -534 -5183 -1303 -377 -217 -858 -568
-1430 -1044 -82 -68 -208 -166 -280 -219 -982 -714 -1766 -1468 -2499 -2403
-341 -436 -595 -815 -993 -1480 -508 -852 -763 -1363 -988 -1985 -319 -883
-506 -2144 -507 -3415 l0 -155 -36 -80 -36 -80 -136 -67 c-223 -108 -382 -216
-772 -522 -204 -160 -319 -269 -445 -421 -412 -496 -689 -1162 -799 -1920 -66
-456 -74 -1067 -20 -1580 35 -338 82 -605 139 -801 299 -1024 878 -1921 1635
-2532 52 -43 151 -126 220 -187 499 -435 1036 -741 1648 -940 698 -226 1529
-282 2332 -159 166 26 329 57 825 158 474 97 751 125 1029 106 283 -20 488
-74 721 -190 176 -88 296 -173 449 -320 185 -178 311 -338 462 -586 50 -83 64
-101 59 -74 -15 76 -106 333 -164 465 -114 258 -359 705 -425 775 -18 19 -45
54 -60 78 -39 62 -282 303 -486 482 -96 84 -227 203 -291 264 l-115 111 19 44
c28 63 33 139 13 197 -14 42 -49 83 -264 299 -449 454 -859 921 -1139 1296
-623 837 -1165 1687 -1548 2433 -156 302 -382 798 -367 803 8 3 813 -263 1397
-461 962 -326 1647 -473 2305 -494 328 -11 1298 -6 1475 7 627 46 996 122
1444 297 586 229 1066 498 1451 813 127 103 328 298 418 404 64 76 66 77 111
77 26 0 55 6 66 14 18 12 44 8 210 -29 530 -119 863 -153 1365 -141 520 12
887 53 1885 211 780 123 1047 158 1330 175 248 14 591 12 715 -5 58 -8 129
-15 159 -15 48 0 57 -3 90 -38 57 -59 103 -77 196 -77 64 0 90 5 129 24 60 30
113 81 137 135 21 46 26 159 9 216 -17 58 -23 219 -12 315 17 137 80 507 107
623 55 239 220 477 493 713 421 362 925 560 1472 576 297 9 521 -23 786 -111
744 -249 1218 -861 1284 -1661 17 -215 18 -225 9 -341 -17 -230 -66 -403 -230
-809 -140 -348 -152 -393 -144 -550 3 -66 13 -139 21 -162 19 -53 106 -135
286 -271 75 -57 163 -127 196 -156 33 -29 104 -88 158 -131 652 -516 1135
-1159 1781 -2370 38 -71 128 -222 199 -335 562 -887 982 -1702 1224 -2380 21
-58 70 -186 110 -285 397 -992 707 -1926 910 -2735 212 -848 389 -1391 590
-1806 349 -725 785 -1143 1375 -1320 108 -32 264 -43 358 -24 278 54 504 277
578 570 18 71 21 102 16 200 -13 256 -91 500 -327 1020 -169 373 -246 579
-329 887 -94 344 -143 611 -251 1348 -56 382 -70 632 -100 1790 -11 427 -21
612 -46 875 -43 456 -129 948 -249 1425 -29 116 -52 211 -51 212 1 1 69 -30
151 -68 647 -305 1663 -723 1978 -813 539 -155 1233 -247 2082 -276 380 -13
1651 -12 2265 1 510 11 1696 5 1790 -9 30 -5 217 -41 415 -80 508 -100 1108
-211 1185 -218 l65 -7 -125 83 c-155 103 -330 273 -413 400 -149 231 -217 459
-217 730 0 272 69 502 215 720 92 137 158 208 412 450 353 334 513 521 667
780 278 466 403 1053 356 1671 -89 1145 -595 2464 -1431 3724 -544 822 -1045
1394 -1870 2137 -447 403 -974 788 -1574 1150 -419 253 -950 534 -1186 629
-1298 518 -2789 912 -4844 1278 -1064 190 -2329 492 -3145 751 -502 160 -1175
425 -1440 567 -216 116 -612 364 -905 568 -326 227 -528 379 -1160 875 -214
168 -469 367 -565 440 -96 74 -242 188 -325 254 -82 66 -262 204 -400 306
-1594 1192 -3234 2006 -4862 2414 -569 142 -1031 217 -1583 256 -144 10 -814
31 -900 28 -25 -1 -164 -5 -310 -9z"/>
<path d="M22255 55819 c-160 -23 -381 -123 -619 -280 -268 -176 -479 -363
-682 -604 -226 -267 -427 -651 -490 -935 -23 -102 -23 -278 -1 -350 38 -128
144 -240 275 -291 47 -19 77 -23 172 -23 107 -1 119 1 169 27 115 61 187 161
295 414 35 81 78 177 96 213 123 247 334 459 680 685 223 146 300 204 399 299
141 137 225 277 257 426 63 297 -169 474 -551 419z"/>
<path d="M24273 54300 c-64 -39 -77 -107 -47 -255 20 -99 23 -348 5 -460 -65
-414 -270 -804 -575 -1092 -145 -137 -401 -295 -546 -337 -61 -17 -240 -49
-369 -65 -46 -6 -95 -18 -108 -26 -42 -28 -63 -74 -63 -139 0 -55 3 -61 39
-97 38 -39 39 -39 117 -39 483 0 989 263 1337 695 112 139 187 256 268 420
189 384 257 806 194 1194 -20 119 -44 174 -87 201 -44 26 -122 27 -165 0z"/>
<path d="M25865 50209 c-45 -13 -86 -60 -92 -106 -4 -27 6 -86 31 -184 156
-627 112 -1227 -125 -1711 -97 -198 -168 -295 -390 -537 l-68 -73 -68 12 c-37
6 -115 14 -173 17 l-105 6 -135 82 c-419 254 -764 391 -1072 424 l-73 8 -90
-85 c-236 -222 -644 -422 -862 -422 -111 0 -351 63 -473 125 -25 13 -76 43
-113 68 -37 25 -67 43 -67 41 0 -2 8 -48 17 -102 11 -66 16 -154 16 -277 0
-161 -3 -190 -25 -275 -14 -52 -44 -133 -65 -180 l-40 -85 -89 -37 c-49 -20
-161 -65 -249 -100 -289 -113 -669 -317 -997 -535 -910 -602 -1670 -1428
-2243 -2438 -110 -194 -287 -560 -363 -752 -232 -588 -362 -1209 -403 -1933
-21 -381 7 -1160 57 -1575 50 -418 168 -927 298 -1290 21 -59 36 -119 36 -145
0 -51 -23 -246 -40 -340 -6 -34 -10 -64 -8 -66 2 -1 37 37 78 86 41 49 77 89
80 89 3 0 25 -45 49 -102 108 -250 301 -608 471 -875 539 -844 1338 -1625
2140 -2092 685 -398 1530 -676 2585 -849 398 -66 623 -84 1028 -85 174 -1 317
-2 317 -4 0 -2 -23 -31 -52 -65 -118 -141 -245 -366 -307 -540 -25 -72 -31
-104 -31 -170 0 -289 150 -733 463 -1369 l102 -208 45 5 c25 3 169 18 320 35
841 92 1392 138 1980 165 173 8 414 26 535 39 2341 260 3466 392 4295 501
1101 146 2169 308 2267 345 72 27 221 63 383 94 74 14 176 37 225 51 50 14
173 48 275 74 312 83 632 193 1165 401 378 147 525 200 925 335 217 73 643
217 945 320 2463 840 3908 1232 5035 1366 224 27 699 33 835 11 281 -46 523
-162 636 -304 161 -203 170 -478 25 -766 -93 -185 -234 -337 -466 -504 -349
-250 -702 -426 -1384 -689 l-270 -104 65 -8 c692 -80 1736 -269 2459 -443 102
-25 345 -79 540 -120 616 -131 981 -213 1245 -283 61 -16 162 -41 225 -56 410
-98 1044 -300 1503 -479 633 -247 899 -379 1167 -580 135 -101 288 -256 328
-333 98 -186 105 -340 24 -503 -36 -73 -150 -192 -240 -251 -127 -84 -313
-144 -476 -155 -135 -9 -613 40 -1786 181 -736 89 -1073 126 -1440 159 -377
35 -990 74 -980 63 3 -3 192 -75 420 -160 1448 -541 2333 -914 3220 -1359 558
-279 845 -440 1082 -606 536 -376 775 -629 868 -919 54 -169 57 -318 9 -438
-107 -264 -377 -430 -758 -466 -64 -6 -150 -8 -191 -4 -59 5 -83 2 -105 -9
-17 -9 -40 -16 -52 -16 -20 0 -23 -5 -23 -39 0 -105 -82 -257 -191 -355 -114
-103 -274 -192 -453 -251 -225 -76 -398 -96 -656 -76 -1033 78 -1710 164
-3370 426 -848 134 -1062 166 -1067 162 -2 -3 78 -49 179 -102 732 -391 1064
-605 1393 -896 304 -268 423 -442 471 -687 18 -93 18 -160 -1 -239 -21 -91
-51 -148 -113 -214 -132 -143 -343 -187 -669 -140 -286 43 -520 117 -1118 356
-625 250 -1689 652 -2065 780 -361 124 -893 261 -1430 369 -447 90 -772 145
-1750 296 -774 120 -1019 160 -1354 221 -419 77 -847 168 -1001 215 -44 13
-171 40 -283 59 l-203 35 -49 -34 c-62 -42 -132 -60 -207 -51 -106 11 -999
-42 -1498 -91 -351 -34 -959 -140 -2200 -383 -1037 -204 -1434 -278 -1805
-341 -102 -17 -304 -62 -450 -100 -329 -86 -491 -125 -785 -191 -350 -78 -933
-217 -1995 -475 -1023 -249 -1437 -349 -1850 -444 -2234 -516 -3788 -754
-5359 -820 l-255 -11 -34 -40 c-60 -69 -95 -81 -277 -91 -226 -12 -512 6 -925
58 -1251 157 -2336 551 -3148 1141 l-117 85 79 -73 c915 -849 2165 -1384 3536
-1513 795 -76 1688 -30 3210 165 1545 197 2622 410 5270 1043 568 136 855 188
1179 217 178 15 560 7 711 -16 518 -78 934 -294 1349 -699 259 -254 473 -537
636 -844 l28 -52 29 52 c37 68 58 89 121 124 43 23 67 29 141 32 49 3 120 -1
158 -8 38 -6 71 -10 73 -8 3 2 -2 36 -10 74 -17 82 -19 213 -4 286 44 211 242
343 543 364 88 6 96 5 251 -41 693 -204 1424 -549 2370 -1118 358 -216 1326
-826 1768 -1116 535 -350 1075 -685 1442 -895 55 -31 156 -93 225 -137 190
-123 293 -179 330 -179 21 0 74 -22 144 -59 276 -147 818 -386 1176 -519 258
-96 439 -156 447 -149 7 7 -80 222 -130 322 -97 193 -216 396 -547 930 -455
733 -658 1097 -805 1441 -235 549 -245 938 -30 1161 l60 63 105 21 c160 33
400 31 571 -4 650 -136 1304 -641 2245 -1732 152 -178 404 -477 634 -754 111
-134 335 -385 448 -503 64 -67 151 -158 192 -202 136 -147 384 -391 475 -467
215 -181 540 -409 852 -597 129 -78 134 -80 170 -70 51 14 196 3 303 -23 69
-16 152 -23 435 -34 954 -38 1669 -26 2225 35 169 19 900 118 1472 200 3061
437 5281 895 7398 1524 173 52 414 122 535 156 279 78 602 180 1196 375 894
294 1487 465 1613 465 24 0 26 3 26 43 0 23 16 107 35 187 65 268 92 738 75
1320 -15 517 -39 1036 -56 1220 -92 1002 -256 2076 -515 3388 l-50 253 -71
122 c-94 162 -261 416 -329 498 -182 224 -706 762 -964 991 -1033 917 -2249
1646 -3835 2298 -661 272 -1579 594 -2450 860 -184 57 -337 106 -340 110 -9
12 -720 220 -754 220 -15 0 -1438 403 -1911 541 -471 137 -853 286 -1393 542
-404 192 -763 384 -1632 872 -1189 668 -1775 961 -2500 1248 -1173 465 -2585
838 -4195 1106 -3040 507 -5038 423 -7400 -313 -946 -295 -1939 -678 -3590
-1384 -291 -125 -533 -229 -538 -231 -5 -2 3 19 16 46 161 318 253 754 227
1078 -17 207 -150 741 -240 967 -21 53 -70 148 -108 210 -182 299 -209 342
-236 375 -28 33 -31 35 -74 28 -96 -14 -126 -34 -275 -180 -166 -163 -285
-252 -452 -334 -380 -187 -709 -196 -1061 -27 -132 63 -209 114 -285 187 -152
148 -250 334 -296 566 -23 120 -23 345 2 473 54 284 189 539 379 717 43 40
147 116 249 181 229 147 306 207 356 283 50 74 65 127 57 196 -12 102 -60 183
-193 327 -436 472 -589 971 -473 1546 30 147 137 483 281 877 210 576 276 793
313 1033 9 58 19 119 22 136 4 26 15 38 69 69 127 75 351 291 487 473 212 282
361 601 452 972 58 233 71 346 70 610 0 227 -1 238 -28 335 -16 55 -29 109
-30 121 -1 12 -8 27 -14 35 -7 8 -26 41 -42 73 -59 114 -125 202 -234 312
-163 163 -329 272 -559 368 l-124 52 87 98 c48 53 113 133 144 176 379 525
505 1280 346 2060 -39 188 -74 301 -102 327 -43 40 -92 50 -153 32z"/>
<path d="M61920 47956 c0 -2 8 -10 18 -17 15 -13 16 -12 3 4 -13 16 -21 21
-21 13z"/>
<path d="M61990 47898 c14 -14 95 -88 180 -164 538 -482 1409 -1428 1928
-2096 461 -592 849 -1184 1732 -2648 496 -820 865 -1402 1070 -1685 265 -367
446 -622 740 -1045 590 -849 768 -1099 1029 -1445 167 -221 454 -580 587 -735
55 -63 137 -164 184 -225 140 -183 394 -498 579 -720 292 -349 1088 -1275
1295 -1505 32 -36 86 -99 119 -140 85 -106 86 -106 27 5 -143 272 -341 537
-1034 1380 -1076 1309 -1721 2164 -2707 3588 -516 744 -868 1282 -1487 2272
-630 1008 -886 1403 -1197 1845 -779 1110 -1666 2112 -2611 2951 -158 141
-477 410 -434 367z"/>
<path d="M27841 44470 c-89 -41 -243 -133 -303 -181 -84 -68 -141 -147 -182
-254 -51 -136 -56 -153 -56 -213 0 -141 107 -219 223 -163 59 29 81 63 83 128
2 61 16 106 55 184 34 68 79 103 228 179 58 30 119 67 137 83 64 56 64 145 0
214 -29 32 -40 36 -87 39 -38 3 -67 -2 -98 -16z"/>
<path d="M29611 43273 c-63 -12 -100 -65 -127 -180 -52 -232 -141 -407 -286
-558 -162 -171 -349 -281 -583 -341 -167 -43 -202 -58 -232 -103 -42 -63 -23
-162 39 -201 111 -71 536 63 781 245 203 151 348 319 447 520 65 132 97 221
131 373 22 97 22 101 5 146 -28 73 -99 113 -175 99z"/>
<path d="M71548 34009 c-114 -111 -320 -236 -513 -311 -524 -203 -807 -284
-1570 -449 -209 -44 -486 -108 -615 -140 -271 -68 -620 -177 -627 -197 -12
-30 181 -1097 637 -3527 109 -583 233 -1244 274 -1470 559 -3061 798 -4910
921 -7130 51 -930 45 -1936 -15 -2620 -58 -649 -161 -1271 -300 -1800 -228
-872 -762 -1647 -1595 -2315 -192 -153 -548 -390 -664 -440 -50 -22 -144 -70
-209 -106 -64 -37 -169 -95 -232 -129 -63 -34 -153 -85 -200 -114 -197 -120
-530 -276 -1050 -491 -356 -147 -505 -212 -585 -256 -33 -18 -139 -65 -235
-105 -1515 -622 -3238 -971 -5400 -1093 -732 -42 -1672 -59 -2105 -40 -434 20
-1053 42 -1915 69 -1122 35 -1840 62 -2210 85 -232 14 -1707 182 -2690 306
-1899 239 -3353 475 -4780 775 -1094 231 -2650 699 -3998 1205 -1408 528
-2847 1190 -4152 1911 -805 445 -1792 1050 -2260 1385 -1152 825 -2038 1552
-2685 2202 -163 165 -141 133 89 -124 168 -187 633 -652 851 -850 1705 -1548
3923 -2952 6550 -4148 1572 -715 3345 -1345 5000 -1776 1525 -397 3411 -728
5960 -1045 2040 -254 2878 -312 5795 -401 1120 -34 2295 -19 3150 40 2389 166
4119 587 6093 1481 1718 779 2725 1569 3382 2654 89 147 280 536 348 710 318
811 480 1824 506 3170 33 1719 -158 3960 -549 6435 -164 1041 -318 1911 -680
3855 -263 1414 -255 1360 -255 1735 1 298 13 410 69 635 78 309 220 565 429
778 184 186 389 327 847 582 682 380 913 553 1101 827 53 78 167 296 158 301
-2 1 -34 -27 -71 -64z"/>
</g>
</svg>
